<svg width="auto" height="auto" viewBox="0 0 21 24" fill="" xmlns="http://www.w3.org/2000/svg">
<path d="M2.59414 0.109091L3.77399 2.18182L4.84657 0L6.13368 2.83636C9.3515 2.72727 11.1748 4.14546 11.6039 6.65455C19.6165 6.65455 22.3439 11.8191 20.3974 19.1439C20.3841 19.1942 20.3112 19.1804 20.3137 19.1284C20.7186 10.6905 17.1897 7.22013 10.8531 8.5091C10.424 5.56364 8.92235 4.03637 5.8119 4.25455L4.73931 2.67696L3.77393 4.14546C3.40646 3.70611 3.18316 3.45162 3.04597 3.18582C2.9961 3.08918 2.83331 3.08823 2.79938 3.19177L2.52882 4.0173C2.51565 4.05748 2.57512 4.12718 2.61667 4.12992C2.86861 4.14651 3.48746 4.30161 4.73926 4.69091C5.05138 4.78861 5.16938 4.83845 5.16835 4.90909C5.18685 5.01126 5.06344 5.05621 4.73931 5.12727C3.78752 5.1735 2.98075 5.22517 1.72803 4.99399C1.49488 4.95096 1.2657 5.10035 1.22092 5.337C0.992843 6.54246 1.0554 7.02304 1.62881 7.52728C2.2327 7.83438 5.29215 8.3336 5.75561 8.12355C5.78631 8.10964 5.83969 8.10664 5.86121 8.13291L7.28735 9.87351C7.36166 9.9642 7.49341 9.97833 7.58468 9.90539L8.92241 8.83637C9.10137 8.79086 9.25571 8.9707 9.1872 9.1449L9.13693 9.27273L7.6353 11.6727L5.38287 9.6C3.29317 9.21139 2.21811 9.09576 1.81335 9.12003C1.68776 9.12756 1.61438 9.2311 1.59218 9.35706C0.999776 12.7182 2.79415 15.5856 6.08307 15.8142C6.42479 15.8379 6.66721 16.2318 6.57609 16.5676C6.21109 17.9127 6.65085 19.4636 6.92276 20.2951C7.02433 20.6057 6.82858 20.8826 6.60586 20.6463C6.15995 20.1733 5.62592 18.9159 4.95383 16.9091C2.14433 16.5916 -0.362315 13.2966 0.567661 8.87073C0.622559 8.60946 0.564686 8.33806 0.431266 8.10792C-0.195543 7.0267 -0.15664 5.72789 0.663479 4.03637C0.798901 3.95053 0.915114 3.92592 1.19977 3.92727L2.59414 0.109091Z" />
<path d="M1.87202 10.4233C1.86314 10.2817 1.9777 10.1594 2.11667 10.1712C3.12192 10.2567 3.98727 10.2412 5.19366 10.6279C5.30056 10.6622 5.36193 10.7764 5.33197 10.8862C5.28011 11.0764 5.23694 11.1994 5.18132 11.2956C5.14658 11.3556 5.0786 11.384 5.01021 11.38L4.60204 11.3562C4.48424 11.3494 4.36973 11.3932 4.28031 11.4715C4.20208 11.54 4.12118 11.605 4.02678 11.6753C3.74973 11.8815 3.36944 11.8809 3.09477 11.6714C2.98206 11.5854 2.87538 11.4977 2.75194 11.3899C2.71892 11.3611 2.67806 11.3428 2.63483 11.3379C2.48909 11.3212 2.37064 11.3075 2.27411 11.2962C1.99682 11.2635 1.84423 11.0832 1.86908 10.8004C1.87785 10.7006 1.88169 10.5775 1.87202 10.4233Z" />
<path d="M14.0708 15.4909C14.3858 14.2093 15.4204 13.8687 16.8727 13.9574C16.9094 13.9596 16.9251 14.0035 16.8966 14.0271C16.6356 14.2425 16.0788 14.5395 15.7869 14.8364C15.7665 15.2025 15.707 15.358 15.4651 15.4909C15.2061 15.51 15.0638 15.4686 14.8216 15.2727L14.0708 15.4909Z" />
<path d="M17.5259 14.3659C17.512 14.3213 17.5283 14.2726 17.5657 14.2454L18.2539 13.7455C17.6103 9.81819 10.853 8.83637 9.24413 12.9818L10.1022 13.7455C10.283 16.796 10.8631 18.2511 13.9635 19.7455L17.074 18.3273L14.3926 24L13.4272 20.8364L14.178 21.9273L14.7143 20.7273L13.9635 21.0545L13.4272 20.8364L14.3926 24L11.7111 20.5091C9.91171 18.8992 9.28607 17.5759 8.92235 14.4L7.52799 13.3091C10.5265 5.35805 19.8332 9.26033 19.8627 14.3757C19.8628 14.3907 19.8551 14.4049 19.8426 14.4128L18.1466 15.4909C17.819 15.0982 17.6742 14.8423 17.5259 14.3659Z" />
</svg>
