<svg width="auto" height="auto" viewBox="0 0 62 24" fill="" xmlns="http://www.w3.org/2000/svg">
<path d="M2.6199 0.109091L3.81147 2.18182L4.89471 0L6.19459 2.83636C9.44438 2.72727 11.2858 4.14546 11.7191 6.65455C19.8113 6.65455 22.5658 11.8191 20.6 19.1439C20.5865 19.1942 20.5129 19.1804 20.5154 19.1284C20.9244 10.6905 17.3604 7.22013 10.9609 8.5091C10.5275 5.56364 9.01096 4.03637 5.86962 4.25455L4.78638 2.67696L3.81141 4.14546C3.44029 3.70611 3.21477 3.45162 3.07622 3.18582C3.02586 3.08918 2.86145 3.08823 2.82718 3.19177L2.55393 4.0173C2.54064 4.05748 2.6007 4.12718 2.64266 4.12992C2.8971 4.14651 3.5221 4.30161 4.78632 4.69091C5.10154 4.78861 5.22072 4.83845 5.21968 4.90909C5.23836 5.01126 5.11373 5.05621 4.78638 5.12727C3.82514 5.1735 3.01035 5.22517 1.74519 4.99399C1.50973 4.95096 1.27827 5.10035 1.23305 5.337C1.0027 6.54246 1.06588 7.02304 1.64498 7.52728C2.25487 7.83438 5.34471 8.3336 5.81277 8.12355C5.84378 8.10964 5.89768 8.10664 5.91942 8.13291L7.35972 9.87351C7.43477 9.9642 7.56783 9.97833 7.66001 9.90539L9.01102 8.83637C9.19175 8.79086 9.34763 8.9707 9.27844 9.1449L9.22767 9.27273L7.71113 11.6727L5.43633 9.6C3.32588 9.21139 2.24014 9.09576 1.83136 9.12003C1.70452 9.12756 1.63042 9.2311 1.608 9.35706C1.00971 12.7182 2.8219 15.5856 6.14348 15.8142C6.48859 15.8379 6.73343 16.2318 6.6414 16.5676C6.27277 17.9127 6.7169 19.4636 6.99151 20.2951C7.09409 20.6057 6.8964 20.8826 6.67146 20.6463C6.22112 20.1733 5.68179 18.9159 5.00303 16.9091C2.16563 16.5916 -0.365913 13.2966 0.573299 8.87073C0.628742 8.60946 0.570294 8.33806 0.435549 8.10792C-0.197485 7.0267 -0.158196 5.72789 0.670068 4.03637C0.806835 3.95053 0.924202 3.92592 1.21169 3.92727L2.6199 0.109091Z" />
<path d="M1.89061 10.4233C1.88165 10.2817 1.99734 10.1594 2.13769 10.1712C3.15292 10.2567 4.02686 10.2412 5.24524 10.6279C5.3532 10.6622 5.41518 10.7764 5.38493 10.8862C5.33255 11.0764 5.28895 11.1994 5.23278 11.2956C5.19769 11.3556 5.12904 11.384 5.05997 11.38L4.64775 11.3562C4.52877 11.3494 4.41312 11.3932 4.32282 11.4715C4.24381 11.54 4.16211 11.605 4.06678 11.6753C3.78697 11.8815 3.4029 11.8809 3.1255 11.6714C3.01167 11.5854 2.90394 11.4977 2.77927 11.3899C2.74592 11.3611 2.70466 11.3428 2.66099 11.3379C2.51381 11.3212 2.39419 11.3075 2.2967 11.2962C2.01665 11.2635 1.86255 11.0832 1.88764 10.8004C1.8965 10.7006 1.90038 10.5775 1.89061 10.4233Z" />
<path d="M14.2105 15.4909C14.5287 14.2093 15.5736 13.8687 17.0403 13.9574C17.0773 13.9596 17.0932 14.0035 17.0644 14.0271C16.8008 14.2425 16.2385 14.5395 15.9437 14.8364C15.9231 15.2025 15.863 15.358 15.6187 15.4909C15.3571 15.51 15.2134 15.4686 14.9688 15.2727L14.2105 15.4909Z" />
<path d="M17.7 14.3659C17.6859 14.3213 17.7023 14.2726 17.7402 14.2454L18.4352 13.7455C17.7852 9.81819 10.9608 8.83637 9.33593 12.9818L10.2025 13.7455C10.3851 16.796 10.971 18.2511 14.1022 19.7455L17.2436 18.3273L14.5355 24L13.5606 20.8364L14.3188 21.9273L14.8605 20.7273L14.1022 21.0545L13.5606 20.8364L14.5355 24L11.8274 20.5091C10.0101 18.8992 9.37829 17.5759 9.01096 14.4L7.60275 13.3091C10.631 5.35805 20.0302 9.26033 20.0599 14.3757C20.06 14.3907 20.0523 14.4049 20.0396 14.4128L18.3268 15.4909C17.996 15.0982 17.8498 14.8423 17.7 14.3659Z" />
<path d="M23.2426 9.6V6.60284H24.4198C24.6394 6.60284 24.8369 6.64222 25.0126 6.72098C25.1896 6.79975 25.3295 6.91513 25.4324 7.06713C25.5353 7.21775 25.5868 7.40153 25.5868 7.61848C25.5868 7.81608 25.5436 7.98604 25.4571 8.12837C25.3707 8.26931 25.2479 8.37779 25.0887 8.45379C24.9296 8.52979 24.7409 8.56779 24.5227 8.56779H24.0432V9.6H23.2426ZM24.0349 7.96669H24.498C24.5996 7.96669 24.6839 7.92593 24.7512 7.8444C24.8184 7.76288 24.852 7.67375 24.852 7.57702C24.852 7.47339 24.815 7.38495 24.7409 7.31171C24.6682 7.23709 24.5872 7.19979 24.498 7.19979H24.0349V7.96669Z" />
<path d="M26.9775 9.6L28.0312 6.60284H28.8504L29.9042 9.6H29.1138L28.9162 9.01964H27.9777L27.776 9.6H26.9775ZM28.1465 8.3315H28.7351L28.4429 7.37389L28.1465 8.3315Z" />
<path d="M32.9278 9.64146C32.6452 9.64146 32.3982 9.5772 32.1869 9.4487C31.9756 9.3188 31.8116 9.13917 31.695 8.90979C31.5784 8.67902 31.52 8.41302 31.52 8.11179C31.52 7.80088 31.5818 7.52935 31.7053 7.2972C31.8301 7.06368 32.0017 6.88266 32.2198 6.75415C32.4394 6.62564 32.6918 6.56139 32.9772 6.56139C33.1775 6.56139 33.3573 6.59178 33.5165 6.65259C33.6756 6.71339 33.8115 6.79629 33.924 6.90131C34.0379 7.00495 34.125 7.1224 34.1854 7.25368C34.2457 7.38495 34.2773 7.52037 34.28 7.65993H33.4424C33.4245 7.5784 33.395 7.50517 33.3539 7.44022C33.3141 7.37528 33.2612 7.32415 33.1954 7.28684C33.1295 7.24815 33.0499 7.2288 32.9566 7.2288C32.8592 7.2288 32.7673 7.25575 32.6808 7.30964C32.5958 7.36215 32.5265 7.45128 32.473 7.57702C32.4208 7.70139 32.3948 7.87135 32.3948 8.08691C32.3948 8.27069 32.4133 8.41924 32.4503 8.53255C32.4887 8.64448 32.5375 8.73015 32.5965 8.78957C32.6568 8.84899 32.722 8.88906 32.792 8.90979C32.862 8.93051 32.9285 8.94088 32.9916 8.94088C33.0479 8.94088 33.1 8.93259 33.148 8.916C33.1961 8.89942 33.2386 8.878 33.2757 8.85175C33.3127 8.82411 33.3436 8.79371 33.3683 8.76055C33.3943 8.72739 33.4129 8.69353 33.4238 8.65899L33.4588 8.5512H32.9402V8.00815L34.3027 8.01644V9.6H33.7778V9.26837C33.7284 9.3195 33.6688 9.37408 33.5988 9.43211C33.5302 9.49015 33.4424 9.5399 33.3353 9.58135C33.2283 9.62142 33.0925 9.64146 32.9278 9.64146Z" />
<path d="M37.6502 9.64146C37.3305 9.64146 37.0766 9.58757 36.8886 9.47979C36.702 9.372 36.5683 9.22208 36.4873 9.03C36.4064 8.83793 36.3659 8.61477 36.3659 8.36051V6.60284H37.1768V8.39368C37.1768 8.60095 37.2241 8.74811 37.3188 8.83517C37.4148 8.92222 37.5253 8.96575 37.6502 8.96575C37.7325 8.96575 37.8093 8.94709 37.8807 8.90979C37.9534 8.87109 38.0117 8.8103 38.0556 8.72739C38.1009 8.6431 38.1235 8.53186 38.1235 8.39368V6.60284H38.9345V8.36051C38.9345 8.61477 38.894 8.83793 38.813 9.03C38.7321 9.22208 38.5976 9.372 38.4096 9.47979C38.223 9.58757 37.9699 9.64146 37.6502 9.64146Z" />
<path d="M41.7567 9.6V8.35222L40.7091 6.60284H41.5735L42.1621 7.66822L42.7446 6.60284H43.6193L42.5594 8.35222V9.6H41.7567Z" />
<path d="M46.7742 9.64146C46.4545 9.64146 46.2007 9.58757 46.0127 9.47979C45.8261 9.372 45.6923 9.22208 45.6114 9.03C45.5304 8.83793 45.4899 8.61477 45.4899 8.36051V6.60284H46.3009V8.39368C46.3009 8.60095 46.3482 8.74811 46.4429 8.83517C46.5389 8.92222 46.6494 8.96575 46.7742 8.96575C46.8566 8.96575 46.9334 8.94709 47.0047 8.90979C47.0775 8.87109 47.1358 8.8103 47.1797 8.72739C47.225 8.6431 47.2476 8.53186 47.2476 8.39368V6.60284H48.0585V8.36051C48.0585 8.61477 48.018 8.83793 47.9371 9.03C47.8561 9.22208 47.7217 9.372 47.5337 9.47979C47.3471 9.58757 47.0939 9.64146 46.7742 9.64146Z" />
<path d="M50.0801 9.6V6.60284H51.2697C51.6855 6.60284 51.988 6.67124 52.1774 6.80804C52.3681 6.94346 52.4635 7.13898 52.4635 7.39462C52.4635 7.5328 52.4292 7.6551 52.3606 7.7615C52.2919 7.8679 52.1657 7.96669 51.9819 8.05789C52.1122 8.09659 52.2144 8.14564 52.2885 8.20506C52.364 8.26448 52.4189 8.32804 52.4532 8.39575C52.4875 8.46346 52.5094 8.53117 52.519 8.59888C52.5286 8.6652 52.5334 8.7267 52.5334 8.78335C52.5334 9.06248 52.4415 9.26837 52.2576 9.40102C52.0752 9.53368 51.7678 9.6 51.3356 9.6H50.0801ZM50.8807 8.99477H51.3644C51.4824 8.99477 51.5709 8.96299 51.6299 8.89942C51.6889 8.83448 51.7184 8.76262 51.7184 8.68386C51.7184 8.62859 51.7047 8.57953 51.6772 8.53669C51.6498 8.49248 51.6107 8.45793 51.5599 8.43306C51.5105 8.4068 51.4522 8.39368 51.385 8.39368H50.8807V8.99477ZM50.8807 7.77186H51.385C51.433 7.77186 51.4755 7.76495 51.5126 7.75113C51.551 7.73731 51.5833 7.71866 51.6093 7.69517C51.6368 7.67029 51.6574 7.64128 51.6711 7.60811C51.6862 7.57357 51.6937 7.53695 51.6937 7.49826C51.6937 7.40844 51.6608 7.33797 51.5949 7.28684C51.5304 7.23433 51.4508 7.20808 51.3562 7.20808H50.8807V7.77186Z" />
<path d="M54.1969 9.6L55.2507 6.60284H56.0698L57.1236 9.6H56.3333L56.1357 9.01964H55.1972L54.9955 9.6H54.1969ZM55.3659 8.3315H55.9546L55.6623 7.37389L55.3659 8.3315Z" />
<path d="M58.9871 9.6V6.60284H59.7939L60.9547 8.27346V6.60284H61.7553V9.6H61.0329L59.7877 7.81331V9.6H58.9871Z" />
<path d="M27.3678 12.2777H26.1529C26.1443 12.1765 26.1213 12.0846 26.0839 12.0022C26.048 11.9197 25.9978 11.8489 25.9331 11.7896C25.87 11.7288 25.7931 11.6825 25.7027 11.6507C25.6122 11.6175 25.5095 11.6008 25.3946 11.6008C25.1936 11.6008 25.0234 11.65 24.8841 11.7484C24.7462 11.8467 24.6414 11.9877 24.5696 12.1714C24.4992 12.3551 24.464 12.5756 24.464 12.8331C24.464 13.105 24.4999 13.3328 24.5717 13.5164C24.645 13.6987 24.7505 13.8361 24.8884 13.9286C25.0262 14.0197 25.1921 14.0653 25.386 14.0653C25.4966 14.0653 25.5957 14.0516 25.6833 14.0241C25.7709 13.9952 25.847 13.9539 25.9116 13.9004C25.9762 13.8469 26.0287 13.7825 26.0689 13.7073C26.1105 13.6307 26.1385 13.5446 26.1529 13.4492L27.3678 13.4579C27.3535 13.6459 27.301 13.8375 27.2106 14.0328C27.1201 14.2266 26.9916 14.4059 26.825 14.5708C26.6598 14.7342 26.4552 14.8658 26.211 14.9656C25.9669 15.0654 25.6833 15.1153 25.3601 15.1153C24.9552 15.1153 24.5918 15.0278 24.2701 14.8528C23.9499 14.6778 23.6964 14.4204 23.5097 14.0805C23.3244 13.7406 23.2318 13.3248 23.2318 12.8331C23.2318 12.3384 23.3266 11.9219 23.5162 11.5835C23.7057 11.2436 23.9614 10.9869 24.2831 10.8133C24.6047 10.6383 24.9638 10.5508 25.3601 10.5508C25.6387 10.5508 25.8951 10.5892 26.1292 10.6658C26.3633 10.7425 26.5686 10.8546 26.7453 11.0021C26.9219 11.1481 27.0641 11.3282 27.1718 11.5423C27.2795 11.7563 27.3449 12.0015 27.3678 12.2777Z" />
<path d="M29.3964 15.1066C29.1853 15.1066 28.9986 15.0719 28.8363 15.0025C28.6755 14.9316 28.5491 14.8246 28.4572 14.6814C28.3653 14.5382 28.3193 14.356 28.3193 14.1347C28.3193 13.9525 28.3502 13.797 28.4119 13.6683C28.4737 13.5381 28.5599 13.4318 28.6704 13.3494C28.781 13.2669 28.9095 13.204 29.056 13.1606C29.204 13.1173 29.3634 13.0891 29.5343 13.076C29.7195 13.0616 29.8682 13.0442 29.9802 13.024C30.0936 13.0023 30.1755 12.9726 30.2257 12.935C30.276 12.896 30.3011 12.8446 30.3011 12.781V12.7723C30.3011 12.6855 30.2681 12.619 30.202 12.5727C30.136 12.5265 30.0513 12.5033 29.9479 12.5033C29.8344 12.5033 29.7418 12.5286 29.67 12.5792C29.5996 12.6284 29.5572 12.7043 29.5429 12.807H28.4486C28.4629 12.6046 28.5268 12.418 28.6403 12.2473C28.7552 12.0752 28.9225 11.9378 29.1422 11.8351C29.3619 11.731 29.6362 11.6789 29.9651 11.6789C30.202 11.6789 30.4146 11.7071 30.6027 11.7635C30.7909 11.8185 30.951 11.8959 31.0831 11.9957C31.2152 12.094 31.3158 12.2097 31.3847 12.3428C31.4551 12.4744 31.4902 12.6176 31.4902 12.7723V15.0546H30.3787V14.586H30.3528C30.2868 14.7103 30.2064 14.8109 30.1116 14.8875C30.0182 14.9642 29.9112 15.0198 29.7906 15.0546C29.6714 15.0893 29.54 15.1066 29.3964 15.1066ZM29.7841 14.3517C29.8746 14.3517 29.9593 14.3329 30.0383 14.2953C30.1188 14.2577 30.1841 14.2034 30.2344 14.1325C30.2846 14.0617 30.3098 13.9756 30.3098 13.8744V13.5967C30.2782 13.6097 30.2444 13.622 30.2085 13.6336C30.174 13.6452 30.1367 13.656 30.0965 13.6661C30.0577 13.6762 30.0161 13.6856 29.9716 13.6943C29.9285 13.703 29.8832 13.711 29.8358 13.7182C29.7439 13.7327 29.6685 13.7565 29.6097 13.7898C29.5522 13.8216 29.5091 13.8614 29.4804 13.9091C29.4531 13.9554 29.4395 14.0074 29.4395 14.0653C29.4395 14.1579 29.4718 14.2287 29.5364 14.2779C29.601 14.3271 29.6836 14.3517 29.7841 14.3517Z" />
<path d="M33.6728 14.2649L33.6814 12.8417H33.8365L34.6379 11.7223H35.9735L34.6293 13.4665H34.2932L33.6728 14.2649ZM32.6044 15.0546V10.6116H33.7935V15.0546H32.6044ZM34.6465 15.0546L33.8882 13.7355L34.6637 12.8851L36.0079 15.0546H34.6465Z" />
<path d="M40.72 15.124C40.4041 15.124 40.1319 15.0676 39.9036 14.9548C39.6752 14.8419 39.5 14.6908 39.3779 14.5013C39.2559 14.3119 39.1948 14.1029 39.1948 13.8744C39.1948 13.7081 39.2264 13.5613 39.2896 13.434C39.3528 13.3053 39.4411 13.1874 39.5546 13.0804C39.668 12.9734 39.8009 12.8678 39.9531 12.7636L40.9526 12.1388C41.0532 12.0752 41.1214 12.0094 41.1573 11.9414C41.1932 11.872 41.2111 11.8105 41.2111 11.757C41.2111 11.6862 41.1853 11.6232 41.1336 11.5683C41.0819 11.5133 41.0015 11.4866 40.8923 11.488C40.8248 11.488 40.7667 11.501 40.7178 11.5271C40.669 11.5517 40.631 11.5864 40.6037 11.6312C40.5778 11.676 40.5649 11.7296 40.5649 11.7917C40.5649 11.8771 40.5893 11.9646 40.6381 12.0542C40.687 12.1425 40.7537 12.2379 40.8385 12.3406C40.9232 12.4433 41.0187 12.5583 41.125 12.6855L43.2619 15.0546H42.0728L40.2805 13.1455C40.1929 13.0515 40.096 12.9365 39.9897 12.8005C39.8835 12.6631 39.7915 12.5084 39.714 12.3363C39.6379 12.1642 39.5998 11.9769 39.5998 11.7744C39.5998 11.5488 39.6537 11.3427 39.7614 11.1561C39.8691 10.9695 40.0199 10.8206 40.2138 10.7092C40.4076 10.5978 40.6338 10.5422 40.8923 10.5422C41.1393 10.5422 41.3519 10.5935 41.53 10.6962C41.7095 10.7989 41.8474 10.9355 41.9436 11.1062C42.0412 11.2769 42.0901 11.4649 42.0901 11.6703C42.0901 11.8771 42.0391 12.0702 41.9371 12.2495C41.8366 12.4288 41.6922 12.5857 41.5041 12.7203L40.5907 13.3711C40.5204 13.4203 40.4593 13.4767 40.4076 13.5403C40.3574 13.6039 40.3322 13.6864 40.3322 13.7876C40.3322 13.8715 40.3516 13.9431 40.3904 14.0024C40.4292 14.0617 40.4838 14.1072 40.5541 14.1391C40.6259 14.1709 40.7099 14.1868 40.8062 14.1868C40.9527 14.1868 41.0991 14.1514 41.2456 14.0805C41.3935 14.0082 41.5285 13.9077 41.6506 13.7789C41.7727 13.6488 41.8703 13.4955 41.9436 13.319C42.0182 13.1411 42.0556 12.9473 42.0556 12.7376H42.9948C42.9948 12.995 42.9682 13.2431 42.9151 13.4817C42.862 13.7204 42.7765 13.9387 42.6588 14.1369C42.541 14.335 42.3859 14.5021 42.1935 14.638C42.1331 14.6684 42.0743 14.6973 42.0168 14.7248C41.9594 14.7523 41.9005 14.7812 41.8402 14.8116C41.6635 14.9258 41.479 15.0068 41.2865 15.0546C41.0941 15.1008 40.9053 15.124 40.72 15.124Z" />
<path d="M50.4642 10.6116V15.0546H49.4647L47.8706 12.7203H47.8448V15.0546H46.647V10.6116H47.6638L49.2321 12.9372H49.2665V10.6116H50.4642Z" />
<path d="M51.594 15.0546V11.7223H52.7831V15.0546H51.594ZM52.1885 11.3752C52.0277 11.3752 51.8898 11.3217 51.7749 11.2147C51.66 11.1076 51.6026 10.9789 51.6026 10.8285C51.6026 10.6781 51.66 10.5494 51.7749 10.4424C51.8898 10.3353 52.0277 10.2818 52.1885 10.2818C52.3508 10.2818 52.4887 10.3353 52.6021 10.4424C52.717 10.5494 52.7745 10.6781 52.7745 10.8285C52.7745 10.9789 52.717 11.1076 52.6021 11.2147C52.4887 11.3217 52.3508 11.3752 52.1885 11.3752Z" />
<path d="M55.124 13.1802V15.0546H53.9349V11.7223H55.0637V12.3558H55.0981C55.1699 12.1446 55.2963 11.979 55.4773 11.859C55.6597 11.739 55.8722 11.6789 56.1149 11.6789C56.349 11.6789 56.5522 11.7332 56.7245 11.8416C56.8983 11.9487 57.0326 12.0962 57.1274 12.2842C57.2236 12.4722 57.271 12.687 57.2696 12.9285V15.0546H56.0804V13.1802C56.0819 13.0153 56.0402 12.8859 55.9555 12.7918C55.8722 12.6978 55.7559 12.6508 55.6065 12.6508C55.5089 12.6508 55.4234 12.6725 55.3502 12.7159C55.2784 12.7579 55.2231 12.8186 55.1843 12.8981C55.1455 12.9762 55.1254 13.0703 55.124 13.1802Z" />
<path d="M59.9966 16.3736C59.6649 16.3736 59.3805 16.3258 59.1435 16.2304C58.908 16.1364 58.7249 16.0062 58.5942 15.8399C58.465 15.675 58.3925 15.4855 58.3767 15.2715H59.5227C59.5342 15.3424 59.5629 15.3995 59.6088 15.4429C59.6548 15.4863 59.7137 15.5174 59.7855 15.5362C59.8587 15.5564 59.9406 15.5665 60.0311 15.5665C60.1847 15.5665 60.3118 15.5289 60.4124 15.4537C60.5143 15.3785 60.5653 15.2426 60.5653 15.0459V14.4818H60.5308C60.4878 14.5946 60.4217 14.6908 60.3327 14.7704C60.2436 14.8485 60.1366 14.9085 60.0117 14.9504C59.8867 14.9909 59.7496 15.0112 59.6002 15.0112C59.3647 15.0112 59.1479 14.9562 58.9497 14.8463C58.7529 14.7364 58.5949 14.5621 58.4757 14.3235C58.358 14.0848 58.2991 13.7731 58.2991 13.3884C58.2991 12.9864 58.3609 12.6595 58.4844 12.4079C58.6093 12.1562 58.7702 11.9718 58.9669 11.8547C59.1651 11.7375 59.3733 11.6789 59.5916 11.6789C59.7553 11.6789 59.8989 11.7079 60.0224 11.7657C60.146 11.8221 60.2494 11.898 60.3327 11.9935C60.4159 12.0875 60.4791 12.1909 60.5222 12.3037H60.5481V11.7223H61.7372V15.0459C61.7372 15.3279 61.6646 15.5673 61.5196 15.764C61.376 15.9621 61.1735 16.1132 60.9121 16.2174C60.6508 16.3215 60.3456 16.3736 59.9966 16.3736ZM60.0397 14.1608C60.1488 14.1608 60.2422 14.1304 60.3197 14.0696C60.3987 14.0074 60.459 13.9192 60.5007 13.805C60.5438 13.6893 60.5653 13.5504 60.5653 13.3884C60.5653 13.2236 60.5438 13.0825 60.5007 12.9654C60.459 12.8468 60.3987 12.7564 60.3197 12.6942C60.2422 12.6306 60.1488 12.5988 60.0397 12.5988C59.9305 12.5988 59.8372 12.6306 59.7596 12.6942C59.6835 12.7564 59.6246 12.8468 59.583 12.9654C59.5428 13.0825 59.5227 13.2236 59.5227 13.3884C59.5227 13.5533 59.5428 13.6936 59.583 13.8093C59.6246 13.9236 59.6835 14.0111 59.7596 14.0718C59.8372 14.1311 59.9305 14.1608 60.0397 14.1608Z" />
<path d="M24.4589 20.1142C24.3052 20.1142 24.1529 20.0948 24.002 20.0562C23.8525 20.0175 23.7146 19.9587 23.5883 19.88C23.4635 19.8012 23.3606 19.7024 23.2796 19.5836C23.1986 19.4634 23.152 19.3224 23.1396 19.1607H23.9547C23.9698 19.2312 24 19.2913 24.0452 19.3411C24.0905 19.3908 24.1516 19.4295 24.2284 19.4571C24.3066 19.4834 24.3999 19.4965 24.5083 19.4965C24.5728 19.4965 24.638 19.4889 24.7038 19.4737C24.7697 19.4571 24.8246 19.4302 24.8685 19.3929C24.9138 19.3542 24.9364 19.3017 24.9364 19.2354C24.9364 19.1483 24.9007 19.0889 24.8294 19.0571C24.758 19.0239 24.6737 18.9984 24.5762 18.9804L24.0679 18.8892C23.8909 18.8574 23.7393 18.8042 23.613 18.7296C23.4868 18.6536 23.3901 18.5548 23.3228 18.4332C23.257 18.3116 23.224 18.1658 23.224 17.9959C23.224 17.7941 23.2796 17.6221 23.3907 17.4798C23.5019 17.336 23.6528 17.2269 23.8435 17.1523C24.0343 17.0763 24.2483 17.0383 24.4857 17.0383C24.745 17.0383 24.9652 17.0783 25.1463 17.1585C25.3288 17.2386 25.4688 17.3499 25.5662 17.4922C25.6636 17.6345 25.7144 17.7983 25.7185 17.9834H24.9241C24.9158 17.9074 24.8925 17.8459 24.8541 17.799C24.8157 17.752 24.7635 17.7174 24.6977 17.6953C24.6332 17.6718 24.555 17.6601 24.463 17.6601C24.3149 17.6601 24.2113 17.6863 24.1523 17.7388C24.0933 17.7914 24.0638 17.848 24.0638 17.9088C24.0638 17.971 24.0878 18.0242 24.1358 18.0684C24.1852 18.1112 24.2723 18.143 24.3972 18.1638L24.8397 18.2363C25.0469 18.2695 25.2163 18.3275 25.348 18.4104C25.4811 18.4933 25.5792 18.597 25.6424 18.7213C25.7055 18.8457 25.737 18.988 25.737 19.1483C25.737 19.3431 25.6808 19.5131 25.5683 19.6582C25.4571 19.8019 25.3055 19.9138 25.1134 19.994C24.9213 20.0741 24.7032 20.1142 24.4589 20.1142Z" />
<path d="M29.7419 20.1142C29.4222 20.1142 29.1683 20.0603 28.9803 19.9525C28.7937 19.8447 28.66 19.6948 28.579 19.5027C28.498 19.3107 28.4576 19.0875 28.4576 18.8332V17.0756H29.2685V18.8664C29.2685 19.0737 29.3158 19.2208 29.4105 19.3079C29.5065 19.395 29.617 19.4385 29.7419 19.4385C29.8242 19.4385 29.901 19.4198 29.9724 19.3825C30.0451 19.3438 30.1034 19.283 30.1473 19.2001C30.1926 19.1158 30.2152 19.0046 30.2152 18.8664V17.0756H31.0261V18.8332C31.0261 19.0875 30.9857 19.3107 30.9047 19.5027C30.8238 19.6948 30.6893 19.8447 30.5013 19.9525C30.3147 20.0603 30.0616 20.1142 29.7419 20.1142Z" />
<path d="M33.8093 20.0727V17.0756H35.1594C35.4174 17.0756 35.6246 17.1184 35.781 17.2041C35.9388 17.2898 36.0533 17.4058 36.1247 17.5523C36.196 17.6974 36.2317 17.8604 36.2317 18.0415C36.2317 18.1948 36.2111 18.3261 36.17 18.4353C36.1302 18.5431 36.0746 18.6356 36.0033 18.713C35.9333 18.789 35.8523 18.8554 35.7604 18.912L36.2832 20.0727H35.462L35.0297 19.0405H34.6099V20.0727H33.8093ZM34.6099 18.4394H35.0688C35.1718 18.4394 35.2568 18.3987 35.3241 18.3171C35.3927 18.2356 35.427 18.1465 35.427 18.0498C35.427 17.9461 35.3899 17.8577 35.3158 17.7844C35.2417 17.7098 35.1594 17.6725 35.0688 17.6725H34.6099V18.4394Z" />
<path d="M38.8564 20.0727L39.9102 17.0756H40.7293L41.7831 20.0727H40.9928L40.7952 19.4924H39.8567L39.655 20.0727H38.8564ZM40.0254 18.8042H40.6141L40.3218 17.8466L40.0254 18.8042Z" />
<path d="M44.4081 20.0727V17.0756H45.5977C46.0135 17.0756 46.316 17.144 46.5054 17.2808C46.6961 17.4162 46.7915 17.6117 46.7915 17.8674C46.7915 18.0055 46.7572 18.1278 46.6886 18.2342C46.62 18.3406 46.4937 18.4394 46.3099 18.5306C46.4402 18.5693 46.5424 18.6184 46.6165 18.6778C46.692 18.7372 46.7469 18.8008 46.7812 18.8685C46.8155 18.9362 46.8374 19.0039 46.847 19.0716C46.8566 19.1379 46.8614 19.1994 46.8614 19.2561C46.8614 19.5352 46.7695 19.7411 46.5857 19.8738C46.4032 20.0064 46.0958 20.0727 45.6636 20.0727H44.4081ZM45.2087 19.4675H45.6924C45.8104 19.4675 45.8989 19.4357 45.9579 19.3722C46.0169 19.3072 46.0464 19.2354 46.0464 19.1566C46.0464 19.1013 46.0327 19.0523 46.0053 19.0094C45.9778 18.9652 45.9387 18.9307 45.8879 18.9058C45.8385 18.8795 45.7802 18.8664 45.713 18.8664H45.2087V19.4675ZM45.2087 18.2446H45.713C45.761 18.2446 45.8036 18.2377 45.8406 18.2239C45.879 18.21 45.9113 18.1914 45.9373 18.1679C45.9648 18.143 45.9854 18.114 45.9991 18.0808C46.0142 18.0463 46.0217 18.0097 46.0217 17.971C46.0217 17.8812 45.9888 17.8107 45.9229 17.7596C45.8584 17.7071 45.7789 17.6808 45.6842 17.6808H45.2087V18.2446Z" />
<path d="M49.2864 20.0727L50.3402 17.0756H51.1594L52.2131 20.0727H51.4228L51.2252 19.4924H50.2867L50.085 20.0727H49.2864ZM50.4555 18.8042H51.0441L50.7518 17.8466L50.4555 18.8042Z" />
<path d="M55.2368 20.0727V18.825L54.1892 17.0756H55.0536L55.6423 18.141L56.2247 17.0756H57.0994L56.0395 18.825V20.0727H55.2368Z" />
<path d="M59.0733 20.0727L60.1271 17.0756H60.9462L62 20.0727H61.2097L61.0121 19.4924H60.0736L59.8719 20.0727H59.0733ZM60.2423 18.8042H60.831L60.5387 17.8466L60.2423 18.8042Z" />
</svg>
