<svg width="794" height="185" viewBox="0 0 794 185" fill="none" xmlns="http://www.w3.org/2000/svg">
<path fill-rule="evenodd" clip-rule="evenodd" d="M12.576 105.984C12.576 107.52 12.768 109.056 13.056 110.496C15.456 119.04 22.464 124.896 31.2 124.896C43.872 124.896 51.456 114.432 51.456 98.88C51.456 85.248 44.544 73.632 31.68 73.632C23.424 73.632 15.648 79.392 13.248 88.8C12.96 90.144 12.576 91.872 12.576 93.792V105.984ZM0.576 33.696H12.576V76.32H12.768C17.088 68.736 24.768 63.84 35.52 63.84C52.032 63.84 63.648 77.856 63.552 98.4C63.552 122.688 48.576 134.688 33.696 134.688C24.096 134.688 16.416 130.944 11.424 121.92H11.04L10.464 133.152H0C0.288 128.544 0.576 121.632 0.576 115.68V33.696Z" fill="#D03539"/>
<path fill-rule="evenodd" clip-rule="evenodd" d="M113.856 98.5921C100.704 98.3041 85.7281 100.704 85.7281 113.856C85.7281 121.824 90.9121 125.568 97.0561 125.568C105.792 125.568 111.264 120 113.184 114.24C113.568 112.992 113.856 111.552 113.856 110.304V98.5921ZM125.568 116.928C125.568 122.784 125.856 128.544 126.624 133.152H115.68L114.72 124.608H114.336C110.592 129.984 103.392 134.688 93.9841 134.688C80.4481 134.688 73.6321 124.992 73.6321 115.2C73.6321 98.8801 87.9361 89.8561 113.568 90.0481V88.6081C113.568 83.0401 112.128 72.9601 98.4961 72.9601C92.2561 72.9601 85.8241 74.8801 81.1201 77.9521L78.4321 69.8881C83.9041 66.2401 91.8721 63.8401 100.224 63.8401C120.576 63.8401 125.568 77.9521 125.568 91.5841V116.928Z" fill="#D03539"/>
<path fill-rule="evenodd" clip-rule="evenodd" d="M145.056 83.7121C145.056 76.7041 144.96 70.9441 144.576 65.3761H155.232L156 76.6081H156.192C159.552 70.1761 167.232 63.8401 178.272 63.8401C187.488 63.8401 201.792 69.4081 201.792 92.6401V133.152H189.696V94.0801C189.696 83.1361 185.664 74.0161 174.24 74.0161C166.272 74.0161 160.128 79.7761 158.016 86.6881C157.44 88.2241 157.248 90.3361 157.248 92.4481V133.152H145.056V83.7121Z" fill="#D03539"/>
<path fill-rule="evenodd" clip-rule="evenodd" d="M233.376 96.48H233.664C235.296 94.08 237.696 91.104 239.616 88.8L259.104 65.376H273.696L247.968 93.216L277.248 133.152H262.56L239.616 100.704L233.376 107.712V133.152H221.472V33.696H233.376V96.48Z" fill="#D03539"/>
<path fill-rule="evenodd" clip-rule="evenodd" d="M314.112 45.792C314.112 50.784 310.368 55.008 304.128 55.008C298.272 55.008 294.624 50.784 294.624 45.792C294.624 40.416 298.464 36.384 304.416 36.384C310.368 36.384 314.112 40.416 314.112 45.792ZM278.016 149.376C283.68 148.992 288.192 147.552 291.072 144.48C294.336 141.12 295.584 135.648 295.584 120.864V64.8H313.056V125.76C313.056 139.872 310.368 148.704 304.128 154.848C298.08 160.416 288.384 162.816 279.744 162.816L278.016 149.376Z" fill="#373435"/>
<path fill-rule="evenodd" clip-rule="evenodd" d="M368.352 99.6479C355.968 99.3599 344.16 102.048 344.16 112.416C344.16 119.136 348.576 122.208 354.144 122.208C361.056 122.208 366.24 117.696 367.776 112.8C368.16 111.552 368.352 110.208 368.352 109.056V99.6479ZM385.344 116.64C385.344 122.784 385.632 128.832 386.4 132.96H370.656L369.504 125.472H369.024C364.8 130.752 357.504 134.592 348.576 134.592C334.656 134.592 326.88 124.608 326.88 114.24C326.88 97.0559 342.336 88.3199 367.872 88.5119V87.3599C367.872 82.8479 366.048 75.4559 353.856 75.4559C347.04 75.4559 339.936 77.5679 335.232 80.4479L331.872 69.3119C336.96 66.2399 345.888 63.2639 356.832 63.2639C379.008 63.2639 385.344 77.0879 385.344 91.9679V116.64Z" fill="#373435"/>
<path fill-rule="evenodd" clip-rule="evenodd" d="M423.072 47.3279V64.7999H439.68V77.6639H423.072V107.808C423.072 116.064 425.28 120.384 432 120.384C435.264 120.384 436.8 120.096 438.816 119.52L439.104 132.768C436.512 133.728 432 134.592 426.432 134.592C420 134.592 414.624 132.288 411.36 128.832C407.712 124.896 405.984 118.752 405.984 109.728V77.6639H396V64.7999H405.984V52.2239L423.072 47.3279Z" fill="#373435"/>
<path fill-rule="evenodd" clip-rule="evenodd" d="M452.832 132.96V64.8H470.496V132.96H452.832ZM471.456 45.792C471.456 50.976 467.616 55.008 461.568 55.008C455.712 55.008 451.872 50.976 451.872 45.792C451.872 40.416 455.808 36.384 461.664 36.384C467.616 36.384 471.36 40.416 471.456 45.792Z" fill="#373435"/>
<path fill-rule="evenodd" clip-rule="evenodd" d="M489.216 85.1519C489.216 77.2799 489.12 70.6559 488.64 64.7999H503.712L504.384 74.8799H504.864C508.224 69.5999 514.464 63.2639 526.176 63.2639C535.2 63.2639 542.304 68.2559 545.28 75.8399H545.568C548.064 72.0959 550.848 69.3119 554.112 67.2959C557.952 64.7039 562.368 63.2639 568.032 63.2639C579.552 63.2639 591.168 70.9439 591.168 92.8319V132.96H574.176V95.3279C574.176 83.9999 570.144 77.2799 561.792 77.2799C555.84 77.2799 551.424 81.5039 549.6 86.3999C549.12 88.0319 548.736 90.1439 548.736 92.0639V132.96H531.648V93.5039C531.648 83.9999 527.808 77.2799 519.744 77.2799C513.216 77.2799 508.8 82.2719 507.264 87.0719C506.592 88.7039 506.304 90.7199 506.304 92.6399V132.96H489.216V85.1519Z" fill="#373435"/>
<path fill-rule="evenodd" clip-rule="evenodd" d="M401.184 153.888C401.184 153.888 487.008 180.384 550.944 165.6C614.784 150.816 654.912 126.336 702.624 56.352C735.36 8.928 749.856 0 749.856 0C749.856 0 748.032 41.376 720.288 80.064C696.576 112.128 684 127.392 684 127.392L579.072 179.136C579.072 179.136 521.952 189.888 401.184 153.888Z" fill="#EA3639"/>
<path fill-rule="evenodd" clip-rule="evenodd" d="M464.256 169.92C464.256 169.92 529.824 181.824 615.456 145.152C646.368 131.904 657.984 126.144 720.192 79.2C748.32 57.984 788.256 36 788.256 36C788.256 36 778.752 63.36 740.544 97.344C715.296 121.536 718.08 132.192 718.08 132.192L606.24 171.36C606.24 171.36 564.096 182.688 464.256 169.92Z" fill="#CF3539"/>
<path fill-rule="evenodd" clip-rule="evenodd" d="M528.192 170.4C528.192 170.4 555.264 165.792 585.312 157.344C628.8 145.056 680.16 126.72 721.632 104.928C742.56 93.984 793.728 79.488 793.728 79.488C793.728 79.488 776.928 103.008 741.984 122.976C723.264 137.28 706.368 142.272 706.368 142.272L659.136 158.496C659.136 158.496 602.208 177.888 528.192 170.4Z" fill="#B53437"/>
<path fill-rule="evenodd" clip-rule="evenodd" d="M522.912 167.712C522.912 167.712 531.168 169.44 559.104 163.776C603.36 154.656 646.272 144.288 687.264 132C725.376 120.576 770.112 119.616 770.112 119.616C770.112 119.616 747.552 131.616 716.832 144.288C698.112 152.448 682.272 155.232 682.272 155.232L635.04 164.448C635.04 164.448 597.024 171.936 522.912 167.712Z" fill="#953133"/>
<path fill-rule="evenodd" clip-rule="evenodd" d="M563.616 184.896C508.704 185.76 451.2 173.952 399.168 153.216C399.168 153.216 477.984 174.336 556.8 164.16C602.592 158.208 638.976 149.376 678.912 145.056C711.072 141.504 744.288 144.96 744.288 144.96C744.288 144.96 669.12 183.168 563.616 184.896Z" fill="#832F30"/>
</svg>
