<svg width="920" height="1069" viewBox="0 0 920 1069" fill="none" xmlns="http://www.w3.org/2000/svg">
<path fill-rule="evenodd" clip-rule="evenodd" d="M897.976 509.321L920 511.293L906.331 588.917L883.239 582.778C877.704 601.775 870.922 620.246 862.985 638.104L886.314 647.822L849.94 717.742L827.148 703.283C816.316 719.563 804.436 735.079 791.602 749.752L813.138 767.902L757.427 823.645L738.474 801.149C723.473 813.425 707.656 824.733 691.111 834.983L707.243 860.416L637.348 896.827L625.509 868.411C607.695 875.682 589.313 881.809 570.437 886.721L578.431 916.802L500.822 930.511L498.019 899.185C488.593 900.005 479.078 900.529 469.495 900.743L469.499 1069L449.826 1068.95C449.826 1051.07 424.239 996.192 396.086 959.414C369.258 924.371 324.473 899.727 301.592 891.306C238.403 868.053 181.637 831.263 134.88 784.498C51.6354 701.244 0.015631 586.332 0 459.759V459.675C0.00841669 333.082 51.6351 218.153 134.895 134.889C218.144 51.6383 333.046 0.0144297 459.609 0H459.693C586.277 0.00721487 701.197 51.6381 784.454 134.905C867.699 218.161 919.318 333.071 919.334 459.644V459.728C919.334 469.531 919.008 479.253 918.399 488.903H899.802C899.347 495.752 898.742 502.559 897.976 509.321ZM449.826 1016.41V863.403C280.752 858.766 138.759 739.081 95.3141 577.938C72.1033 570.46 51.8421 560.657 36.5959 550.147C54.3575 633.118 96.0071 707.425 153.979 765.402C196.088 807.517 246.81 841.033 303.208 863.024C321.851 870.295 341.821 881.085 358.186 891.179C406.623 921.057 433.926 961.389 449.826 1016.41ZM124.477 585.7C169.385 728.11 297.802 832.399 449.826 836.871V716.497C449.826 709.455 451.443 702.724 453.491 696.325C461.669 670.832 484.88 652.368 513.246 640.425C540.5 628.957 577.47 623.373 605.164 623.373C612.327 623.373 619.223 623.741 625.716 624.488C619.299 617.986 610.076 612.591 598.081 612.591H561.404L564.081 600.886C565.038 596.686 566.414 589.272 563.541 583.747V583.711C560.647 578.136 552.702 573.468 533.964 573.468H449.826V488.904H28.0121C67.1954 545.941 142.09 578.86 205.984 591.163C172.146 592.059 156.605 591.669 124.477 585.7ZM469.507 529.114C472.168 526.445 475.043 523.86 478.133 521.341C494.049 508.372 515.693 497.241 537.69 488.905H469.507V529.114ZM596.989 488.905C564.717 492.975 516.356 509.892 487.767 533.187C481.651 538.173 476.517 543.416 472.777 548.814C471.517 550.633 470.429 552.46 469.507 554.302V554.326H529.204C556.864 554.326 569.909 563.71 575.744 574.934L575.756 574.926C579.011 581.19 579.792 587.715 579.589 593.447H593.319C617.391 593.447 633.763 607.668 642.522 620.894C644.215 623.452 645.647 626.009 646.792 628.425C647.994 630.965 648.897 633.349 649.495 635.456L649.518 635.54L654.42 652.702L637.405 647.245C627.653 644.121 614.777 642.524 600.404 642.524C574.889 642.524 545.392 647.594 520.651 658.005C497.031 667.949 477.922 682.649 471.661 702.166C470.244 706.589 469.482 711.363 469.482 716.502L469.506 832.292C568.25 829.712 657.64 788.408 722.993 723.065C784.035 662.018 824.102 579.957 831.209 488.91L596.989 488.905ZM582.107 107.503C618.813 153.708 647.131 206.706 665.011 263.285C688.233 256.626 710.91 248.883 732.811 240.123C749.057 233.625 764.911 226.552 780.268 218.952C789.802 214.235 799.178 209.276 808.384 204.107C795.308 186.324 780.927 169.58 765.355 154.006C734.787 123.432 699.677 97.3831 661.155 76.989C655.351 79.911 649.439 82.7294 643.406 85.4241C634.014 89.6208 624.491 93.4774 614.892 96.9766C604.126 100.902 593.173 104.405 582.107 107.503ZM670.406 281.603C681.131 320.954 686.839 361.826 686.839 403.176C686.839 420.835 685.821 441.589 683.802 460.202H892.314C892.314 460.046 892.317 459.888 892.317 459.73V459.646C892.31 371.061 865.424 288.541 819.418 219.829C809.467 225.454 799.229 230.876 788.722 236.076C772.952 243.878 756.645 251.155 739.917 257.844C717.45 266.83 694.209 274.764 670.406 281.603ZM664.578 460.202C666.65 441.906 667.695 420.993 667.695 403.176C667.695 363.553 662.221 324.377 651.94 286.665C593.215 301.935 531.425 310.501 469.507 311.324V460.202H664.578ZM646.529 268.327C628.461 211.508 599.402 158.464 561.634 112.73C531.318 119.725 500.298 123.639 469.507 124.328V292.175C529.634 291.356 589.569 283.077 646.529 268.327ZM358.247 112.071C320.002 158.203 290.638 211.811 272.508 269.251C329.451 283.587 389.562 291.409 449.826 292.175V124.309C418.99 123.558 388.237 119.293 358.247 112.071ZM267.125 287.629C257.018 325.047 251.635 363.893 251.635 403.176C251.635 420.993 252.684 441.911 254.755 460.206H449.826V311.321C387.744 310.546 325.793 302.468 267.125 287.629ZM235.527 460.206C233.509 441.589 232.491 420.835 232.491 403.176C232.491 362.212 238.096 321.709 248.629 282.698C243.793 281.339 238.996 279.953 234.244 278.514C186.005 263.894 140.421 244.507 99.3376 220.698C53.6843 289.249 27.0202 371.455 27.0166 459.678V459.762C27.0166 459.911 27.0199 460.057 27.0199 460.206H235.527ZM253.993 264.322C271.962 207.013 300.639 153.352 337.897 106.669C336.736 106.336 335.562 105.999 334.382 105.65C308.408 97.9384 283.199 88.071 259.22 76.4382C220.3 96.9116 184.834 123.148 153.993 153.992C138.158 169.829 123.547 186.868 110.3 204.983C149.632 227.613 193.372 246.127 239.781 260.186C244.505 261.619 249.246 262.989 253.993 264.322ZM281.292 65.6171C300.229 74.0873 319.79 81.3961 339.765 87.3243C344.911 88.8514 350.405 90.3639 356.202 91.8538C389.968 100.519 424.79 105.294 459.583 105.298H459.667C509.87 105.298 560.931 96.3221 608.384 79.0257C617.662 75.6455 626.762 71.9613 635.625 68.0027C636.901 67.4315 638.163 66.846 639.435 66.2604C584.641 41.0768 523.76 27.0234 459.693 27.0198H459.609C396.101 27.027 335.714 40.8388 281.292 65.6171Z" fill="#FFCB00"/>
<path fill-rule="evenodd" clip-rule="evenodd" d="M281.292 65.6171C300.229 74.0873 319.79 81.3961 339.765 87.3243C344.911 88.8514 350.405 90.3639 356.202 91.8538C389.968 100.519 424.79 105.294 459.583 105.298H459.667C509.87 105.298 560.931 96.3221 608.384 79.0257C617.662 75.6455 626.762 71.9613 635.625 68.0027C636.901 67.4315 638.163 66.846 639.435 66.2604C584.641 41.0768 523.76 27.0234 459.693 27.0198H459.609C396.101 27.027 335.714 40.8388 281.292 65.6171ZM539.213 586.453C544.305 586.453 548.462 590.616 548.462 595.709C548.462 600.801 544.305 604.96 539.213 604.96C534.121 604.96 529.959 600.801 529.959 595.709C529.959 590.616 534.121 586.453 539.213 586.453ZM449.826 814.368L449.826 716.497C449.826 709.455 451.443 702.724 453.491 696.325C461.669 670.832 484.88 652.368 513.246 640.425C540.5 628.957 577.47 623.373 605.164 623.373C612.327 623.373 619.223 623.741 625.716 624.488C619.299 617.986 610.076 612.591 598.081 612.591H561.404L564.081 600.886C565.038 596.686 566.414 589.272 563.541 583.747V583.711C560.647 578.136 552.702 573.468 533.964 573.468H449.826V488.904H28.0121C67.1954 545.941 142.09 578.86 205.984 591.163C181.905 591.802 167.076 591.771 148.962 589.558C193.866 717.391 311.367 810.029 449.826 814.368ZM449.826 1016.41V863.403C280.752 858.766 138.759 739.081 95.3141 577.938C72.1033 570.46 51.8421 560.657 36.5959 550.147C54.3575 633.118 96.0071 707.425 153.979 765.402C196.088 807.517 246.81 841.033 303.208 863.024C321.851 870.295 341.821 881.085 358.186 891.179C406.623 921.057 433.926 961.389 449.826 1016.41ZM596.989 488.905C564.717 492.975 516.356 509.892 487.767 533.187C481.651 538.173 476.517 543.416 472.777 548.814C471.517 550.633 470.429 552.46 469.507 554.302V554.326H529.204C556.864 554.326 569.909 563.71 575.744 574.934L575.756 574.926C579.011 581.19 579.792 587.715 579.589 593.447H593.319C617.391 593.447 633.763 607.668 642.522 620.894C644.215 623.452 645.647 626.009 646.792 628.425C647.994 630.965 648.897 633.349 649.495 635.456L649.518 635.54L654.42 652.702L637.405 647.245C627.653 644.121 614.777 642.524 600.404 642.524C574.889 642.524 545.392 647.594 520.651 658.005C497.031 667.949 477.922 682.649 471.661 702.166C470.244 706.589 469.482 711.363 469.482 716.502L469.506 832.292C568.25 829.712 657.64 788.408 722.993 723.065C784.035 662.018 824.102 579.957 831.209 488.91L596.989 488.905ZM582.107 107.503C618.813 153.708 647.131 206.706 665.011 263.285C688.233 256.626 710.91 248.883 732.811 240.123C749.057 233.625 764.911 226.552 780.268 218.952C789.802 214.235 799.178 209.276 808.384 204.107C795.308 186.324 780.927 169.58 765.355 154.006C734.787 123.432 699.677 97.3831 661.155 76.989C655.351 79.911 649.439 82.7294 643.406 85.4241C634.014 89.6208 624.491 93.4774 614.892 96.9766C604.126 100.902 593.173 104.405 582.107 107.503ZM670.406 281.603C681.131 320.954 686.839 361.826 686.839 403.176C686.839 420.835 685.821 441.589 683.802 460.202H892.314C892.314 460.046 892.317 459.888 892.317 459.73V459.646C892.31 371.061 865.424 288.541 819.418 219.829C809.467 225.454 799.229 230.876 788.722 236.076C772.952 243.878 756.645 251.155 739.917 257.844C717.45 266.83 694.209 274.764 670.406 281.603ZM664.578 460.202C666.65 441.906 667.695 420.993 667.695 403.176C667.695 363.553 662.221 324.377 651.94 286.665C593.215 301.935 531.425 310.501 469.507 311.324V460.202H664.578ZM646.529 268.327C628.461 211.508 599.402 158.464 561.634 112.73C531.318 119.725 500.298 123.639 469.507 124.328V292.175C529.634 291.356 589.569 283.077 646.529 268.327ZM358.247 112.071C320.002 158.203 290.638 211.811 272.508 269.251C329.451 283.587 389.562 291.409 449.826 292.175V124.309C418.99 123.558 388.237 119.293 358.247 112.071ZM267.125 287.629C257.018 325.047 251.635 363.893 251.635 403.176C251.635 420.993 252.684 441.911 254.755 460.206H449.826V311.321C387.744 310.546 325.793 302.468 267.125 287.629ZM235.527 460.206C233.509 441.589 232.491 420.835 232.491 403.176C232.491 362.212 238.096 321.709 248.629 282.698C243.793 281.339 238.996 279.953 234.244 278.514C186.005 263.894 140.421 244.507 99.3376 220.698C53.6843 289.249 27.0202 371.455 27.0166 459.678V459.762C27.0166 459.911 27.0199 460.057 27.0199 460.206H235.527ZM253.993 264.322C271.962 207.013 300.639 153.352 337.897 106.669C336.736 106.336 335.562 105.999 334.382 105.65C308.408 97.9384 283.199 88.071 259.22 76.4382C220.3 96.9116 184.834 123.148 153.993 153.992C138.158 169.829 123.547 186.868 110.3 204.983C149.632 227.613 193.372 246.127 239.781 260.186C244.505 261.619 249.246 262.989 253.993 264.322Z" fill="#102A83"/>
<path fill-rule="evenodd" clip-rule="evenodd" d="M124.477 585.7C169.385 728.11 297.802 832.399 449.826 836.871L449.826 814.368C311.367 810.029 193.866 717.391 148.962 589.558C141.619 588.662 133.747 587.423 124.477 585.7ZM539.213 586.453C544.305 586.453 548.462 590.616 548.462 595.709C548.462 600.801 544.305 604.96 539.213 604.96C534.121 604.96 529.959 600.801 529.959 595.709C529.959 590.616 534.121 586.453 539.213 586.453ZM469.507 529.114C472.168 526.445 475.043 523.86 478.133 521.341C494.049 508.372 515.693 497.241 537.69 488.905H469.507V529.114Z" fill="white"/>
</svg>
