<svg width="294" height="203" viewBox="0 0 294 203" fill="none" xmlns="http://www.w3.org/2000/svg">
<g clip-path="url(#clip0_51_169)">
<path d="M21.3345 189.268H27.0331C28.5625 189.268 29.7625 189.686 30.5291 190.398C31.0851 190.938 31.3918 191.608 31.3918 192.429V192.468C31.3918 194.118 30.3198 194.969 29.2705 195.406C30.8558 195.857 32.1398 196.732 32.1398 198.47V198.509C32.1398 200.684 30.2105 201.974 27.2811 201.974H21.3345V189.268ZM26.7825 194.94C28.6038 194.94 29.8651 194.148 29.8651 192.668V192.626C29.8651 191.374 28.8105 190.558 26.8985 190.558H22.8225V194.94H26.7825ZM27.3198 200.684C29.3465 200.684 30.6078 199.834 30.6078 198.414V198.38C30.6078 197.006 29.3825 196.204 27.0545 196.204H22.8225V200.684H27.3198Z" fill="#EF888B"/>
<path d="M37.9955 195.656V195.627C37.9955 192.123 40.7689 189.055 44.8409 189.055C48.9129 189.055 51.6475 192.084 51.6475 195.586C51.6662 195.603 51.6662 195.603 51.6475 195.627C51.6475 199.128 48.8755 202.195 44.7995 202.195C40.7249 202.195 37.9955 199.163 37.9955 195.656ZM50.0795 195.656V195.627C50.0795 192.739 47.8582 190.376 44.7995 190.376C41.7435 190.376 39.5689 192.698 39.5689 195.586V195.627C39.5689 198.511 41.7822 200.87 44.8409 200.87C47.8995 200.87 50.0795 198.547 50.0795 195.656Z" fill="#EF888B"/>
<path d="M58.2905 189.268H64.0451C65.6865 189.268 67.0078 189.738 67.8505 190.538C68.4985 191.157 68.8811 192.049 68.8811 193.048V193.084C68.8811 195.188 67.3518 196.422 65.2451 196.785L69.3611 201.974H67.5051L63.6238 197.041H59.7998V201.974H58.2905V189.268ZM63.9105 195.753C65.9171 195.753 67.3518 194.766 67.3518 193.137V193.101C67.3518 191.542 66.0905 190.593 63.9251 190.593H59.7998V195.753H63.9105Z" fill="#EF888B"/>
<path d="M75.565 189.268H76.9743L85.4077 199.457V189.268H86.8783V201.974H85.669L77.0383 191.561V201.974H75.565V189.268Z" fill="#EF888B"/>
<path d="M106.835 190.593H102.338V189.269H112.858V190.593H108.362V201.976H106.835V190.593Z" fill="#EF888B"/>
<path d="M117.615 195.656V195.627C117.615 192.123 120.394 189.055 124.467 189.055C128.536 189.055 131.271 192.084 131.271 195.586C131.291 195.603 131.291 195.603 131.271 195.627C131.271 199.128 128.495 202.195 124.424 202.195C120.352 202.195 117.615 199.163 117.615 195.656ZM129.708 195.656V195.627C129.708 192.739 127.49 190.376 124.424 190.376C121.366 190.376 119.188 192.698 119.188 195.586V195.627C119.188 198.511 121.407 200.87 124.467 200.87C127.524 200.87 129.708 198.547 129.708 195.656Z" fill="#EF888B"/>
<path d="M147.092 189.268H152.794C154.32 189.268 155.529 189.686 156.289 190.398C156.845 190.938 157.154 191.608 157.154 192.429V192.468C157.154 194.118 156.08 194.969 155.03 195.406C156.616 195.857 157.897 196.732 157.897 198.47V198.509C157.897 200.684 155.965 201.974 153.036 201.974H147.092V189.268ZM152.541 194.94C154.365 194.94 155.622 194.148 155.622 192.668V192.626C155.622 191.374 154.568 190.558 152.658 190.558H148.582V194.94H152.541ZM153.082 200.684C155.108 200.684 156.362 199.834 156.362 198.414V198.38C156.362 197.006 155.142 196.204 152.812 196.204H148.582V200.684H153.082Z" fill="#EF888B"/>
<path d="M164.347 189.268H174.027V190.576H165.859V194.914H173.158V196.22H165.859V200.674H174.117V201.974H164.347V189.268Z" fill="#EF888B"/>
<path d="M189.788 189.268H191.298V200.65H198.832V201.974H189.788V189.268Z" fill="#EF888B"/>
<path d="M203.71 195.656V195.627C203.71 192.123 206.486 189.055 210.558 189.055C214.625 189.055 217.365 192.084 217.365 195.586C217.381 195.603 217.381 195.603 217.365 195.627C217.365 199.128 214.587 202.195 210.517 202.195C206.447 202.195 203.71 199.163 203.71 195.656ZM215.795 195.656V195.627C215.795 192.739 213.578 190.376 210.517 190.376C207.458 190.376 205.281 192.698 205.281 195.586V195.627C205.281 198.511 207.497 200.87 210.558 200.87C213.614 200.87 215.795 198.547 215.795 195.656Z" fill="#EF888B"/>
<path d="M222.071 189.268H223.757L228.515 200.217L233.295 189.268H234.925L229.17 202.069H227.829L222.071 189.268Z" fill="#EF888B"/>
<path d="M241.011 189.268H250.688V190.576H242.519V194.914H249.819V196.22H242.519V200.674H250.78V201.974H241.011V189.268Z" fill="#EF888B"/>
<path d="M257.268 189.268H261.912C266.117 189.268 269.025 192.012 269.025 195.585V195.626C269.025 199.201 266.117 201.974 261.912 201.974H257.268V189.268ZM261.912 200.65C265.298 200.65 267.461 198.47 267.461 195.658V195.626C267.461 192.81 265.298 190.593 261.912 190.593H258.777V200.65H261.912Z" fill="#EF888B"/>
<path d="M148.897 165.036H143.834C142.673 164.945 141.73 164.105 141.565 163.012V162.357C141.582 162.26 141.565 162.177 141.582 162.104H141.565V130.865C141.565 126.854 140.227 123.56 137.581 121.064C134.921 118.686 131.383 117.498 126.911 117.498C123.431 117.498 119.715 118.462 115.798 120.404C111.602 122.42 108.519 124.509 106.466 126.665C105.485 123.56 103.778 121.265 101.362 119.776C98.934 118.253 96.0167 117.498 92.634 117.498C89.066 117.498 85.5527 118.253 82.0673 119.776C78.822 121.202 75.7047 123.216 72.7367 125.796V120.274C72.8193 119.612 72.342 119.001 71.638 118.901H58.1713C57.482 119.001 56.9993 119.612 57.0847 120.274V122.354H57.1167C56.9833 123.002 57.4407 123.625 58.118 123.762H64.9673C65.9833 124.013 66.802 124.874 66.862 125.909V168.477C66.7313 169.144 67.2007 169.76 67.8967 169.884H80.558C81.2473 169.76 81.722 169.144 81.6127 168.477V166.377C81.6847 165.725 81.2127 165.13 80.558 165.036H75.0033C73.9127 164.958 72.9913 164.19 72.7367 163.205V131.404C75.41 129.026 78.598 126.954 82.282 125.142C85.7673 123.424 89.066 122.558 92.1593 122.558C95.2713 122.558 97.5553 123.365 98.9807 124.938C100.482 126.521 101.265 128.717 101.265 131.513V168.917C101.394 169.565 102.053 170.001 102.733 169.884H105.697C106.363 170.001 106.997 169.594 107.155 168.934V131.828C110.091 129.026 113.274 126.777 116.694 125.033C120.159 123.392 123.493 122.558 126.683 122.558C129.589 122.558 131.797 123.365 133.373 124.938C134.882 126.521 135.659 128.717 135.659 131.513V168.728C135.678 169.281 136.085 169.774 136.691 169.884H148.917C149.601 169.76 150.073 169.144 149.958 168.477V166.236C149.973 165.664 149.513 165.13 148.897 165.036Z" fill="#EF888B"/>
<path d="M173.85 165.053V165.036H167.965C166.881 164.947 165.98 164.167 165.746 163.156V120.183C165.788 119.547 165.32 119.002 164.66 118.907H151.512C150.821 119.002 150.321 119.611 150.418 120.268V122.348C150.3 123 150.765 123.625 151.446 123.763H158C158.94 123.999 159.702 124.715 159.845 125.674V165.036H159.953V169.002C160.05 169.43 160.416 169.762 160.897 169.89H174.001C174.49 169.762 174.846 169.408 174.937 168.964V166.296C174.965 165.678 174.513 165.115 173.85 165.053Z" fill="#EF888B"/>
<path d="M234.913 165.053V165.036H229.741C228.652 164.947 227.735 164.167 227.508 163.179V130.859C227.508 126.852 226.196 123.56 223.531 121.064C220.884 118.687 217.427 117.499 213.208 117.499C209.497 117.499 205.891 118.254 202.425 119.774C198.919 121.267 195.675 123.28 192.663 125.796V120.268H192.643C192.739 119.611 192.261 119.002 191.552 118.907H178.083C177.38 119.002 176.892 119.611 176.997 120.268V122.348C176.877 123 177.324 123.626 178.044 123.763H184.877C185.891 123.999 186.625 124.81 186.748 125.814V168.804C186.808 169.311 187.14 169.744 187.703 169.89H200.477C201.105 169.712 201.483 169.143 201.403 168.514V166.366C201.453 165.714 200.976 165.115 200.309 165.053V165.036H194.899C193.777 164.947 192.86 164.163 192.663 163.127V162.224C192.663 162.175 192.663 162.116 192.677 162.104H192.663V131.402C195.309 129.027 198.476 126.955 202.196 125.14C205.828 123.424 209.236 122.56 212.412 122.56C215.356 122.56 217.636 123.363 219.196 124.936C220.816 126.456 221.612 128.635 221.612 131.514V169.002C221.712 169.43 222.077 169.762 222.543 169.89H235.103C235.721 169.712 236.113 169.143 236.015 168.514H236.028V166.408C236.113 165.746 235.62 165.115 234.913 165.053Z" fill="#EF888B"/>
<path d="M292.031 165.053V165.036H286.399C285.28 164.947 284.375 164.138 284.168 163.091V162.251C284.168 162.251 284.168 162.116 284.183 162.104H284.168V131.959C284.168 127.055 282.463 123.424 279.044 121.064C275.65 118.687 270.679 117.499 264.172 117.499C262.743 117.499 261.22 117.66 259.599 117.973C257.958 118.308 256.448 118.687 255.114 119.096C253.926 119.484 252.612 119.935 251.195 120.458C250.95 120.648 250.806 120.87 250.74 121.135C250.74 121.2 250.708 121.267 250.708 121.267L251.663 123.499C251.782 123.577 251.875 123.643 252.006 123.704C252.235 123.804 252.542 123.804 252.795 123.828C254.1 123.424 255.247 123.103 256.228 122.829C257.448 122.516 258.754 122.187 260.162 121.927C261.54 121.635 262.826 121.488 263.963 121.488C268.256 121.488 271.743 122.331 274.386 123.964C276.97 125.546 278.24 128.201 278.24 131.959V144.004C275.382 142.508 272.556 141.426 269.742 140.782C266.863 140.132 264.372 139.811 262.258 139.811C256.198 139.811 251.304 141.326 247.591 144.326C243.978 147.296 242.136 151.015 242.136 155.544C242.136 159.638 243.746 163.205 246.922 166.217C250.022 169.172 253.996 170.635 258.842 170.635C261.783 170.635 265.078 169.919 268.711 168.483C272.123 167.11 275.316 165.186 278.24 162.675V168.646C278.204 169.226 278.6 169.724 279.204 169.889H292.17C292.744 169.744 293.144 169.273 293.144 168.707V166.318C293.166 165.699 292.698 165.115 292.031 165.053ZM278.24 157.911C276.063 160.293 273.268 162.314 269.832 163.951C266.603 165.534 263.386 166.329 260.208 166.329C256.516 166.329 253.54 165.28 251.354 163.206C249.232 161.19 248.174 158.776 248.174 155.977C248.174 152.615 249.474 149.742 252.144 147.462C254.807 145.154 258.496 144.004 263.267 144.004C265.923 144.004 268.578 144.452 271.222 145.314C273.64 146.098 276.003 147.187 278.24 148.536V157.911Z" fill="#EF888B"/>
<path d="M8.8779 146.533C18.6406 150.325 31.7059 149.462 41.7019 146.907L42.4126 146.706C52.2952 144.334 52.8846 138.229 51.5379 133.393L51.5112 133.295C49.6379 125.009 40.3139 120.277 40.3139 120.277L40.2432 120.238C36.0086 118.017 31.1726 117.101 25.7272 117.495C17.9192 118.063 11.6686 121.037 7.02457 126.433C2.3659 131.81 0.347234 138.314 0.963234 145.943C1.58723 153.643 4.66723 159.787 10.1886 164.354C11.1286 165.141 12.0966 165.854 13.1032 166.491L13.3926 166.67C13.3926 166.67 24.1486 174.389 39.3206 168.25L39.6072 168.145C43.0726 166.686 47.9872 164.149 47.9872 164.149L48.0486 164.115C48.0486 164.115 49.7499 163.229 49.1286 162.239L49.0752 162.145L47.9526 160.265C47.5659 159.746 46.7846 159.646 46.2366 160.006C46.0712 160.09 45.9419 160.162 45.8179 160.233C37.6086 164.699 34.8806 165.089 34.8806 165.089L34.5739 165.171C23.2352 167.985 16.0446 162.218 16.0446 162.218L15.9712 162.169C15.3939 161.762 14.8299 161.326 14.2859 160.857C10.6406 157.766 8.20057 153.729 6.98057 148.854C6.6939 147.721 6.20457 145.213 8.8779 146.533ZM16.7246 124.701L17.0232 124.529C19.5606 123.186 22.4619 122.419 25.6539 122.189C28.0472 122.013 30.2859 122.147 32.3672 122.593L32.6526 122.651C32.6526 122.651 42.7806 124.815 46.3579 133.802L46.6672 134.73C46.9819 135.833 47.1059 137.014 46.9832 138.251L46.9526 138.45C46.7859 139.325 46.3459 140.141 45.3566 140.581L44.0566 141.219C43.6206 141.421 43.1606 141.617 42.6739 141.801C31.2526 146.143 8.63657 144.602 6.97657 140.745L6.84457 140.138C6.84457 140.138 6.3819 131.139 16.7246 124.701Z" fill="#EF888B"/>
<path d="M194.309 26.7745C194.309 26.6425 194.309 26.5239 194.307 26.3999C194.271 24.7905 193.823 23.2292 193.081 21.7039C192.451 20.4092 190.959 18.4412 190.011 17.4065C189.335 16.6705 179.611 4.24919 179.611 4.24919C179.611 4.24919 179.313 3.97452 179.195 3.85452C179.104 3.77452 179.012 3.68386 178.915 3.60119C177.692 2.48386 176.237 1.59719 174.577 1.01452C173.24 0.545189 171.867 0.318519 170.5 0.298519L170.485 0.289191C170.485 0.289191 164.539 0.0331897 162.788 0.0878564C156.611 0.25319 152.836 -0.441473 149.253 2.63719C144.237 6.95186 141.492 9.45319 140.492 10.4252L136.057 14.5959L131.613 10.4252C130.621 9.45319 127.875 6.95186 122.853 2.63719C119.276 -0.441473 115.507 0.25319 109.325 0.0878564C107.568 0.0331897 101.624 0.289191 101.624 0.289191L101.611 0.298519C100.245 0.318519 98.8761 0.545189 97.5321 1.01452C95.8761 1.59719 94.4174 2.48386 93.1974 3.60119C93.1027 3.68386 93.0081 3.77452 92.9174 3.85452C92.7987 3.97452 92.5014 4.24919 92.5014 4.24919C92.5014 4.24919 82.7801 16.6705 82.1001 17.4065C81.1507 18.4412 79.6587 20.4092 79.0294 21.7039C78.2867 23.2292 77.8387 24.7905 77.8027 26.3999C77.8001 26.5239 77.8 26.6425 77.8 26.7745L77.8321 40.2479C77.8361 41.6199 77.6587 43.2825 78.1774 44.6239C78.7014 45.9785 79.1614 46.8945 80.1107 47.9439L80.1134 47.9465C80.2694 48.1172 80.4174 48.2945 80.5814 48.4572C80.6641 48.5372 80.7467 48.6185 80.8294 48.6932L125.947 92.6119C127.491 94.0812 128.528 94.8945 129.955 95.5959C130.044 95.6439 130.132 95.6852 130.22 95.7265C131.325 96.2305 134.728 96.5479 136.143 96.6252V96.6305H136.176V96.6252C137.584 96.5479 140.787 96.2305 141.895 95.7265C141.98 95.6852 142.069 95.6439 142.157 95.5959C143.584 94.8945 144.624 94.0812 146.163 92.6119L191.285 48.6932C191.365 48.6185 191.448 48.5372 191.528 48.4572C191.692 48.2945 191.843 48.1172 191.999 47.9465L192.001 47.9439C192.951 46.8945 193.408 45.9785 193.939 44.6239C194.456 43.2825 194.28 41.6199 194.28 40.2479L194.309 26.7745ZM135.987 50.6439L132.161 47.0132L135.979 43.3879L139.803 47.0159L135.987 50.6439ZM135.987 58.5225L142.761 64.9625L135.987 71.3945L129.204 64.9625L135.987 58.5225ZM135.987 34.3705L132.161 30.7385L136.023 27.0785L139.839 30.7092L135.987 34.3705ZM188.021 40.2479C188.021 40.9505 187.892 41.6345 187.639 42.2825C187.393 42.9105 187.013 43.5159 186.509 44.0719L186.244 44.3732C185.857 44.7372 154.451 75.7759 141.288 88.8652C140.708 89.4372 139.876 89.9732 139.287 90.1972C138.739 90.3985 137.333 90.5919 136.16 90.6719C134.983 90.5919 133.373 90.3985 132.825 90.1972C132.232 89.9732 131.399 89.4372 130.827 88.8652C117.661 75.7759 86.252 44.7372 85.868 44.3732L85.6001 44.0719C85.0987 43.5159 84.7187 42.9105 84.4721 42.2825C84.2187 41.6345 84.0907 40.9505 84.0907 40.2479L84.0654 26.5305C84.0774 25.6932 84.2707 24.8919 84.6334 24.1465C84.9427 23.5185 85.4201 22.9119 85.8747 22.3625C86.5841 21.4905 96.7121 8.65185 96.7121 8.65185L96.8601 8.51586C96.8601 8.51586 97.2374 8.16518 97.3841 8.02385L97.5321 7.88252C98.1654 7.31052 98.9347 6.97186 99.6974 6.58919C100.319 6.28786 100.457 6.27986 100.727 6.22919C102.651 5.87586 108.571 6.02919 108.571 6.02919C112.007 6.10919 117.08 5.70252 118.38 6.86919C124.656 12.5265 128.523 15.8985 132.088 19.2372L133.551 20.4119L129.619 24.1425L127.409 26.2345L120.084 19.2772C118.261 17.5425 115.864 16.5465 113.337 16.4759C113.232 16.4692 113.127 16.4692 113.023 16.4692C110.565 16.4692 108.184 17.3919 106.489 19.0092C104.76 20.6519 103.811 22.8519 103.811 25.2105V25.5105C103.891 27.9092 104.943 30.1865 106.772 31.9279L114.099 38.8745L106.769 45.8372C104.943 47.5665 103.891 49.8359 103.811 52.2372V52.5412C103.811 54.8985 104.76 57.1052 106.484 58.7465C108.184 60.3612 110.577 61.2892 113.043 61.2892C113.14 61.2892 113.235 61.2892 113.337 61.2839C115.863 61.2132 118.261 60.2079 120.095 58.4732L127.417 51.5239L130.887 54.8225L122.456 62.8225C121.215 64.0039 121.215 65.9132 122.456 67.0972L133.732 77.8012C134.352 78.3879 135.168 78.6812 135.987 78.6812C136.797 78.6812 137.611 78.3879 138.236 77.8012L149.512 67.0972C150.751 65.9132 150.751 64.0039 149.512 62.8225L141.079 54.8225L144.548 51.5239L151.879 58.4759C153.708 60.2119 156.107 61.2132 158.631 61.2839C158.731 61.2839 158.931 61.2892 158.931 61.2892C161.391 61.2892 163.781 60.3612 165.489 58.7465C167.211 57.1052 168.157 54.8985 168.157 52.5412C168.157 52.4372 168.157 52.3399 168.153 52.2412C168.072 49.8359 167.02 47.5585 165.195 45.8305L157.872 38.8745L165.195 31.9225C167.02 30.1865 168.072 27.9172 168.153 25.5199C168.157 25.4185 168.157 25.3105 168.157 25.2105C168.157 22.8519 167.211 20.6479 165.479 19.0092C163.781 17.3945 161.397 16.4692 158.945 16.4692C158.845 16.4692 158.739 16.4692 158.633 16.4759C156.101 16.5465 153.705 17.5425 151.879 19.2785L144.585 26.2025L140.767 22.5785L140.779 22.5639L138.551 20.4212L140.019 19.2372C143.589 15.8985 147.456 12.5265 153.732 6.86919C155.035 5.70252 160.104 6.10919 163.543 6.02919C163.543 6.02919 169.46 5.87586 171.384 6.22919C171.652 6.27986 171.791 6.28786 172.409 6.58919C173.175 6.97186 173.944 7.31052 174.577 7.88252L174.728 8.02385C174.872 8.16518 175.252 8.51586 175.252 8.51586L175.395 8.65185C175.395 8.65185 185.525 21.4905 186.237 22.3625C186.692 22.9119 187.167 23.5185 187.479 24.1465C187.841 24.8919 188.032 25.6932 188.047 26.5305L188.021 40.2479ZM131.233 38.8745L127.409 42.5065L123.589 38.8799L127.417 35.2492L131.233 38.8745ZM118.845 43.3799L122.661 47.0132L115.339 53.9679C114.727 54.5505 113.936 54.8812 113.123 54.9105H113.029C112.533 54.9105 111.824 54.7959 111.233 54.2412C110.648 53.6759 110.521 52.9919 110.521 52.5265H110.359L110.527 52.4465C110.548 51.6665 110.901 50.9225 111.52 50.3345L118.845 43.3799ZM118.845 34.3705L111.515 27.4105C110.901 26.8279 110.548 26.0825 110.527 25.3105L110.521 25.2239C110.521 24.7559 110.648 24.0759 111.233 23.5185C111.823 22.9585 112.533 22.8399 113.028 22.8399H113.123C113.936 22.8639 114.725 23.2025 115.339 23.7839L122.661 30.7385L118.845 34.3705ZM140.731 38.8745L144.585 35.2145L148.408 38.8452L144.556 42.5065L140.731 38.8745ZM153.123 43.3799L160.453 50.3372C161.061 50.9172 161.415 51.6665 161.441 52.4372V52.5292C161.441 52.9985 161.32 53.6759 160.737 54.2332C160.144 54.7959 159.431 54.9105 158.936 54.9105H158.845C158.028 54.8812 157.241 54.5425 156.62 53.9679L149.3 47.0132L153.123 43.3799ZM149.333 30.7092L156.629 23.7799C157.245 23.2025 158.029 22.8639 158.841 22.8399H158.936C159.656 22.8399 160.26 23.0652 160.728 23.5119C161.32 24.0759 161.441 24.7532 161.441 25.2239V25.3065C161.415 26.0825 161.061 26.8372 160.445 27.4199L153.157 34.3385L149.333 30.7092Z" fill="#EF888B"/>
</g>
<defs>
<clipPath id="clip0_51_169">
<rect width="292.29" height="202.115" fill="white" transform="translate(0.855225 0.0802002)"/>
</clipPath>
</defs>
</svg>
