<svg width="526" height="107" viewBox="0 0 526 107" fill="none" xmlns="http://www.w3.org/2000/svg">
<path fill-rule="evenodd" clip-rule="evenodd" d="M123.35 22.8461H158.963C168.85 22.8461 176.913 30.9094 176.913 40.7966V44.2523C176.913 54.0435 168.85 62.1068 158.963 62.1068H133.525V83.1291H123.35V22.8461ZM133.525 34.1732V51.6437L159.251 51.7397C163.762 51.7397 167.218 48.38 167.218 44.4443V41.3726C167.218 37.4369 164.05 34.1732 159.539 34.1732H133.525Z" fill="#0076BF"/>
<path d="M320.229 22.8461H309.958V83.0331H320.229V22.8461Z" fill="#0076BF"/>
<path fill-rule="evenodd" clip-rule="evenodd" d="M194 44.8283H233.837V55.0994H194V67.0984C194 70.3622 196.784 73.1459 200.047 73.1459H244.396V82.7451H200.047C191.408 82.7451 184.305 75.7377 184.305 67.0984V38.7808C184.305 30.1415 191.408 23.0381 200.047 23.0381H244.396V32.7333H200.047C196.784 32.7333 194 35.4211 194 38.7808V44.8283Z" fill="#0076BF"/>
<path fill-rule="evenodd" clip-rule="evenodd" d="M252.555 23.2301V67.0984C252.555 75.7377 259.658 82.7451 268.298 82.7451H300.743V73.1459H268.298C265.034 73.1459 262.25 70.3622 262.25 67.0984V23.2301H252.555Z" fill="#0076BF"/>
<path fill-rule="evenodd" clip-rule="evenodd" d="M495.607 23.4221C511.926 23.4221 525.268 36.669 525.268 53.0836C525.268 69.4982 511.926 82.7451 495.607 82.7451C479.192 82.7451 465.849 69.4982 465.849 53.0836C465.849 36.669 479.192 23.4221 495.607 23.4221ZM495.607 33.5012C506.358 33.5012 515.189 42.2365 515.189 53.0836C515.189 63.9307 506.358 72.762 495.607 72.762C484.76 72.762 475.929 63.9307 475.929 53.0836C475.929 42.2365 484.76 33.5012 495.607 33.5012Z" fill="#0076BF"/>
<path fill-rule="evenodd" clip-rule="evenodd" d="M428.124 23.4221C444.539 23.4221 457.882 36.669 457.882 53.0836C457.882 69.4982 444.539 82.7451 428.124 82.7451H398.463V23.4221H428.124ZM428.124 72.762C438.972 72.762 447.803 63.9307 447.803 53.0836C447.803 42.2365 438.972 33.5012 428.124 33.5012H408.734V72.762H428.124Z" fill="#0076BF"/>
<path fill-rule="evenodd" clip-rule="evenodd" d="M329.541 23.4221L339.812 30.8134L379.073 61.6269V23.4221H389.248V82.7451L379.073 75.3538L339.812 45.4042V82.7451H329.541V23.4221Z" fill="#0076BF"/>
<path fill-rule="evenodd" clip-rule="evenodd" d="M96.664 0H56.6353C30.7175 0 9.50321 21.2142 9.50321 47.1321V60.475H32.7333V47.1321C32.7333 33.9812 43.4844 23.2301 56.6353 23.2301H96.664V0ZM9.50321 83.6091V106.839H32.7333V83.6091H9.50321Z" fill="#2FB6E5"/>
<path fill-rule="evenodd" clip-rule="evenodd" d="M0 83.6091H9.50321V60.475H0V83.6091ZM32.7333 83.6091H49.5319C75.4497 83.6091 96.664 62.4908 96.664 36.573V0H73.4339V36.573C73.4339 49.7239 62.6828 60.475 49.5319 60.475H32.7333V83.6091Z" fill="#0076BF"/>
</svg>
